<svg xmlns="http://www.w3.org/2000/svg" width="264" height="264" viewBox="0 0 264 264" fill="none"><path d="M131.768 1.76776L196.768 66.7678L131.768 131.768L66.7678 66.7678L131.768 1.76776Z" fill="#C4500F"></path><mask id="mask0_13_435" style="mask-type:luminance" maskUnits="userSpaceOnUse" x="66" y="1" width="131" height="131">
<path d="M131.768 1.76776L196.768 66.7678L131.768 131.768L66.7678 66.7678L131.768 1.76776Z" fill="white"></path>
</mask><g mask="url(#mask0_13_435)">
<path d="M66.7678 44.7678H196.768" stroke="#8B2E07" stroke-width="1.2"></path>
<path d="M66.7678 57.7678H196.768" stroke="#8B2E07" stroke-width="1.2"></path>
<path d="M66.7678 70.7678H196.768" stroke="#8B2E07" stroke-width="1.2"></path>
<path d="M66.7678 83.7678H196.768" stroke="#8B2E07" stroke-width="1.2"></path>
<path d="M66.7678 96.7678H196.768" stroke="#8B2E07" stroke-width="1.2"></path>
<path d="M66.7678 109.768H196.768" stroke="#8B2E07" stroke-width="1.2"></path>
<path d="M86.7678 1.76776V44.7678" stroke="#8B2E07" stroke-width="1.2"></path>
<path d="M106.768 1.76776V44.7678" stroke="#8B2E07" stroke-width="1.2"></path>
<path d="M126.768 1.76776V44.7678" stroke="#8B2E07" stroke-width="1.2"></path>
<path d="M146.768 1.76776V44.7678" stroke="#8B2E07" stroke-width="1.2"></path>
<path d="M166.768 1.76776V44.7678" stroke="#8B2E07" stroke-width="1.2"></path>
<path d="M186.768 1.76776V44.7678" stroke="#8B2E07" stroke-width="1.2"></path>
<path d="M76.7678 44.7678V57.7678" stroke="#8B2E07" stroke-width="1.2"></path>
<path d="M96.7678 44.7678V57.7678" stroke="#8B2E07" stroke-width="1.2"></path>
<path d="M116.768 44.7678V57.7678" stroke="#8B2E07" stroke-width="1.2"></path>
<path d="M136.768 44.7678V57.7678" stroke="#8B2E07" stroke-width="1.2"></path>
<path d="M156.768 44.7678V57.7678" stroke="#8B2E07" stroke-width="1.2"></path>
<path d="M176.768 44.7678V57.7678" stroke="#8B2E07" stroke-width="1.2"></path>
<path d="M196.768 44.7678V57.7678" stroke="#8B2E07" stroke-width="1.2"></path>
<path d="M86.7678 57.7678V70.7678" stroke="#8B2E07" stroke-width="1.2"></path>
<path d="M106.768 57.7678V70.7678" stroke="#8B2E07" stroke-width="1.2"></path>
<path d="M126.768 57.7678V70.7678" stroke="#8B2E07" stroke-width="1.2"></path>
<path d="M146.768 57.7678V70.7678" stroke="#8B2E07" stroke-width="1.2"></path>
<path d="M166.768 57.7678V70.7678" stroke="#8B2E07" stroke-width="1.2"></path>
<path d="M186.768 57.7678V70.7678" stroke="#8B2E07" stroke-width="1.2"></path>
<path d="M76.7678 70.7678V83.7678" stroke="#8B2E07" stroke-width="1.2"></path>
<path d="M96.7678 70.7678V83.7678" stroke="#8B2E07" stroke-width="1.2"></path>
<path d="M116.768 70.7678V83.7678" stroke="#8B2E07" stroke-width="1.2"></path>
<path d="M136.768 70.7678V83.7678" stroke="#8B2E07" stroke-width="1.2"></path>
<path d="M156.768 70.7678V83.7678" stroke="#8B2E07" stroke-width="1.2"></path>
<path d="M176.768 70.7678V83.7678" stroke="#8B2E07" stroke-width="1.2"></path>
<path d="M86.7678 83.7678V96.7678" stroke="#8B2E07" stroke-width="1.2"></path>
<path d="M106.768 83.7678V96.7678" stroke="#8B2E07" stroke-width="1.2"></path>
<path d="M126.768 83.7678V96.7678" stroke="#8B2E07" stroke-width="1.2"></path>
<path d="M146.768 83.7678V96.7678" stroke="#8B2E07" stroke-width="1.2"></path>
<path d="M166.768 83.7678V96.7678" stroke="#8B2E07" stroke-width="1.2"></path>
<path d="M186.768 83.7678V96.7678" stroke="#8B2E07" stroke-width="1.2"></path>
<path d="M76.7678 96.7678V109.768" stroke="#8B2E07" stroke-width="1.2"></path>
<path d="M96.7678 96.7678V109.768" stroke="#8B2E07" stroke-width="1.2"></path>
<path d="M116.768 96.7678V109.768" stroke="#8B2E07" stroke-width="1.2"></path>
<path d="M136.768 96.7678V109.768" stroke="#8B2E07" stroke-width="1.2"></path>
<path d="M156.768 96.7678V109.768" stroke="#8B2E07" stroke-width="1.2"></path>
<path d="M176.768 96.7678V109.768" stroke="#8B2E07" stroke-width="1.2"></path>
<path d="M86.7678 109.768V131.768" stroke="#8B2E07" stroke-width="1.2"></path>
<path d="M106.768 109.768V131.768" stroke="#8B2E07" stroke-width="1.2"></path>
<path d="M126.768 109.768V131.768" stroke="#8B2E07" stroke-width="1.2"></path>
<path d="M146.768 109.768V131.768" stroke="#8B2E07" stroke-width="1.2"></path>
<path d="M166.768 109.768V131.768" stroke="#8B2E07" stroke-width="1.2"></path>
<path d="M186.768 109.768V131.768" stroke="#8B2E07" stroke-width="1.2"></path>
</g><path d="M131.768 1.76776L196.768 66.7678L131.768 131.768L66.7678 66.7678L131.768 1.76776Z" stroke="#7A2505" stroke-width="2.5"></path><path d="M66.7678 66.7678L131.768 131.768L66.7678 196.768L1.76776 131.768L66.7678 66.7678Z" fill="#6B7F63"></path><mask id="mask1_13_435" style="mask-type:luminance" maskUnits="userSpaceOnUse" x="1" y="66" width="131" height="131">
<path d="M66.7678 66.7678L131.768 131.768L66.7678 196.768L1.76776 131.768L66.7678 66.7678Z" fill="white"></path>
</mask><g mask="url(#mask1_13_435)">
<path d="M36.7678 107.768C46.7089 107.768 54.7678 101.947 54.7678 94.7678C54.7678 87.5881 46.7089 81.7678 36.7678 81.7678C26.8266 81.7678 18.7678 87.5881 18.7678 94.7678C18.7678 101.947 26.8266 107.768 36.7678 107.768Z" stroke="#4A5A42" stroke-width="1.1"></path>
<path d="M71.7678 100.768C80.6043 100.768 87.7678 95.3952 87.7678 88.7678C87.7678 82.1403 80.6043 76.7678 71.7678 76.7678C62.9312 76.7678 55.7678 82.1403 55.7678 88.7678C55.7678 95.3952 62.9312 100.768 71.7678 100.768Z" stroke="#4A5A42" stroke-width="1.1"></path>
<path d="M99.7678 109.768C109.157 109.768 116.768 103.947 116.768 96.7678C116.768 89.5881 109.157 83.7678 99.7678 83.7678C90.3789 83.7678 82.7678 89.5881 82.7678 96.7678C82.7678 103.947 90.3789 109.768 99.7678 109.768Z" stroke="#4A5A42" stroke-width="1.1"></path>
<path d="M24.7678 135.768C32.4997 135.768 38.7678 128.157 38.7678 118.768C38.7678 109.379 32.4997 101.768 24.7678 101.768C17.0358 101.768 10.7678 109.379 10.7678 118.768C10.7678 128.157 17.0358 135.768 24.7678 135.768Z" stroke="#4A5A42" stroke-width="1.1"></path>
<path d="M56.7678 138.768C67.8135 138.768 76.7678 132.5 76.7678 124.768C76.7678 117.036 67.8135 110.768 56.7678 110.768C45.7221 110.768 36.7678 117.036 36.7678 124.768C36.7678 132.5 45.7221 138.768 56.7678 138.768Z" stroke="#4A5A42" stroke-width="1.1"></path>
<path d="M91.7678 139.768C100.604 139.768 107.768 131.709 107.768 121.768C107.768 111.827 100.604 103.768 91.7678 103.768C82.9312 103.768 75.7678 111.827 75.7678 121.768C75.7678 131.709 82.9312 139.768 91.7678 139.768Z" stroke="#4A5A42" stroke-width="1.1"></path>
<path d="M39.7678 164.768C49.7089 164.768 57.7678 158.947 57.7678 151.768C57.7678 144.588 49.7089 138.768 39.7678 138.768C29.8266 138.768 21.7678 144.588 21.7678 151.768C21.7678 158.947 29.8266 164.768 39.7678 164.768Z" stroke="#4A5A42" stroke-width="1.1"></path>
<path d="M74.7678 168.768C84.1566 168.768 91.7678 163.395 91.7678 156.768C91.7678 150.14 84.1566 144.768 74.7678 144.768C65.3789 144.768 57.7678 150.14 57.7678 156.768C57.7678 163.395 65.3789 168.768 74.7678 168.768Z" stroke="#4A5A42" stroke-width="1.1"></path>
<path d="M101.768 162.768C110.052 162.768 116.768 156.5 116.768 148.768C116.768 141.036 110.052 134.768 101.768 134.768C93.4835 134.768 86.7678 141.036 86.7678 148.768C86.7678 156.5 93.4835 162.768 101.768 162.768Z" stroke="#4A5A42" stroke-width="1.1"></path>
</g><path d="M66.7678 66.7678L131.768 131.768L66.7678 196.768L1.76776 131.768L66.7678 66.7678Z" stroke="#3D5238" stroke-width="2.5"></path><path d="M196.768 66.7678L261.768 131.768L196.768 196.768L131.768 131.768L196.768 66.7678Z" fill="#7A90A0"></path><mask id="mask2_13_435" style="mask-type:luminance" maskUnits="userSpaceOnUse" x="131" y="66" width="131" height="131">
<path d="M196.768 66.7678L261.768 131.768L196.768 196.768L131.768 131.768L196.768 66.7678Z" fill="white"></path>
</mask><g mask="url(#mask2_13_435)">
<path d="M131.768 101.768C145.101 98.4344 158.434 98.7678 171.768 102.768C185.101 98.7678 198.434 98.4344 211.768 101.768C225.101 98.4344 241.768 98.1011 261.768 100.768" stroke="#4F6878" stroke-width="1.2"></path>
<path d="M131.768 118.768C141.768 116.101 152.434 116.434 163.768 119.768C177.101 115.768 189.768 115.434 201.768 118.768C215.101 116.101 235.101 115.768 261.768 117.768" stroke="#4F6878" stroke-width="1.2"></path>
<path d="M131.768 138.768C146.434 136.101 159.768 136.434 171.768 139.768C185.101 136.434 197.768 136.434 209.768 139.768C224.434 136.434 241.768 135.768 261.768 137.768" stroke="#4F6878" stroke-width="1.2"></path>
<path d="M131.768 158.768C143.768 156.101 155.768 156.434 167.768 159.768C181.101 156.434 193.768 156.434 205.768 159.768C219.768 156.434 238.434 155.768 261.768 157.768" stroke="#4F6878" stroke-width="1.2"></path>
<path d="M131.768 176.768C145.101 174.101 157.768 174.434 169.768 177.768C183.101 174.434 195.768 174.434 207.768 177.768C222.434 174.434 240.434 173.768 261.768 175.768" stroke="#4F6878" stroke-width="1.2"></path>
<path d="M153.768 66.7678C152.434 81.4344 152.768 95.4344 154.768 108.768C152.768 122.101 152.434 135.434 153.768 148.768C152.434 162.101 152.434 178.101 153.768 196.768" stroke="#4F6878" stroke-width="1.2"></path>
<path d="M179.768 66.7678C178.434 80.1011 178.768 93.4344 180.768 106.768C178.768 120.101 178.768 133.434 180.768 146.768C178.768 160.101 178.434 176.768 179.768 196.768" stroke="#4F6878" stroke-width="1.2"></path>
<path d="M205.768 66.7678C204.434 81.4344 204.768 95.4344 206.768 108.768C204.768 122.101 204.768 135.434 206.768 148.768C204.768 162.101 204.434 178.101 205.768 196.768" stroke="#4F6878" stroke-width="1.2"></path>
<path d="M231.768 66.7678C230.434 80.1011 230.768 94.1011 232.768 108.768C230.768 122.101 230.768 135.434 232.768 148.768C230.768 160.768 230.434 176.768 231.768 196.768" stroke="#4F6878" stroke-width="1.2"></path>
</g><path d="M196.768 66.7678L261.768 131.768L196.768 196.768L131.768 131.768L196.768 66.7678Z" stroke="#445A68" stroke-width="2.5"></path><path d="M131.768 131.768L196.768 196.768L131.768 261.768L66.7678 196.768L131.768 131.768Z" fill="#B05A25"></path><mask id="mask3_13_435" style="mask-type:luminance" maskUnits="userSpaceOnUse" x="66" y="131" width="131" height="131">
<path d="M131.768 131.768L196.768 196.768L131.768 261.768L66.7678 196.768L131.768 131.768Z" fill="white"></path>
</mask><g mask="url(#mask3_13_435)">
<path d="M66.7678 151.768H196.768" stroke="#7A3D10" stroke-width="1.2"></path>
<path d="M66.7678 164.768H196.768" stroke="#7A3D10" stroke-width="1.2"></path>
<path d="M66.7678 177.768H196.768" stroke="#7A3D10" stroke-width="1.2"></path>
<path d="M66.7678 190.768H196.768" stroke="#7A3D10" stroke-width="1.2"></path>
<path d="M66.7678 203.768H196.768" stroke="#7A3D10" stroke-width="1.2"></path>
<path d="M66.7678 216.768H196.768" stroke="#7A3D10" stroke-width="1.2"></path>
<path d="M66.7678 229.768H196.768" stroke="#7A3D10" stroke-width="1.2"></path>
<path d="M66.7678 242.768H196.768" stroke="#7A3D10" stroke-width="1.2"></path>
<path d="M91.7678 131.768V151.768" stroke="#7A3D10" stroke-width="1.2"></path>
<path d="M116.768 131.768V151.768" stroke="#7A3D10" stroke-width="1.2"></path>
<path d="M141.768 131.768V151.768" stroke="#7A3D10" stroke-width="1.2"></path>
<path d="M166.768 131.768V151.768" stroke="#7A3D10" stroke-width="1.2"></path>
<path d="M191.768 131.768V151.768" stroke="#7A3D10" stroke-width="1.2"></path>
<path d="M79.7678 151.768V164.768" stroke="#7A3D10" stroke-width="1.2"></path>
<path d="M104.768 151.768V164.768" stroke="#7A3D10" stroke-width="1.2"></path>
<path d="M129.768 151.768V164.768" stroke="#7A3D10" stroke-width="1.2"></path>
<path d="M154.768 151.768V164.768" stroke="#7A3D10" stroke-width="1.2"></path>
<path d="M179.768 151.768V164.768" stroke="#7A3D10" stroke-width="1.2"></path>
<path d="M91.7678 164.768V177.768" stroke="#7A3D10" stroke-width="1.2"></path>
<path d="M116.768 164.768V177.768" stroke="#7A3D10" stroke-width="1.2"></path>
<path d="M141.768 164.768V177.768" stroke="#7A3D10" stroke-width="1.2"></path>
<path d="M166.768 164.768V177.768" stroke="#7A3D10" stroke-width="1.2"></path>
<path d="M191.768 164.768V177.768" stroke="#7A3D10" stroke-width="1.2"></path>
<path d="M79.7678 177.768V190.768" stroke="#7A3D10" stroke-width="1.2"></path>
<path d="M104.768 177.768V190.768" stroke="#7A3D10" stroke-width="1.2"></path>
<path d="M129.768 177.768V190.768" stroke="#7A3D10" stroke-width="1.2"></path>
<path d="M154.768 177.768V190.768" stroke="#7A3D10" stroke-width="1.2"></path>
<path d="M179.768 177.768V190.768" stroke="#7A3D10" stroke-width="1.2"></path>
<path d="M91.7678 190.768V203.768" stroke="#7A3D10" stroke-width="1.2"></path>
<path d="M116.768 190.768V203.768" stroke="#7A3D10" stroke-width="1.2"></path>
<path d="M141.768 190.768V203.768" stroke="#7A3D10" stroke-width="1.2"></path>
<path d="M166.768 190.768V203.768" stroke="#7A3D10" stroke-width="1.2"></path>
<path d="M191.768 190.768V203.768" stroke="#7A3D10" stroke-width="1.2"></path>
<path d="M79.7678 203.768V216.768" stroke="#7A3D10" stroke-width="1.2"></path>
<path d="M104.768 203.768V216.768" stroke="#7A3D10" stroke-width="1.2"></path>
<path d="M129.768 203.768V216.768" stroke="#7A3D10" stroke-width="1.2"></path>
<path d="M154.768 203.768V216.768" stroke="#7A3D10" stroke-width="1.2"></path>
<path d="M179.768 203.768V216.768" stroke="#7A3D10" stroke-width="1.2"></path>
<path d="M91.7678 216.768V229.768" stroke="#7A3D10" stroke-width="1.2"></path>
<path d="M116.768 216.768V229.768" stroke="#7A3D10" stroke-width="1.2"></path>
<path d="M141.768 216.768V229.768" stroke="#7A3D10" stroke-width="1.2"></path>
<path d="M166.768 216.768V229.768" stroke="#7A3D10" stroke-width="1.2"></path>
<path d="M191.768 216.768V229.768" stroke="#7A3D10" stroke-width="1.2"></path>
<path d="M79.7678 229.768V242.768" stroke="#7A3D10" stroke-width="1.2"></path>
<path d="M104.768 229.768V242.768" stroke="#7A3D10" stroke-width="1.2"></path>
<path d="M129.768 229.768V242.768" stroke="#7A3D10" stroke-width="1.2"></path>
<path d="M154.768 229.768V242.768" stroke="#7A3D10" stroke-width="1.2"></path>
<path d="M179.768 229.768V242.768" stroke="#7A3D10" stroke-width="1.2"></path>
<path d="M91.7678 242.768V261.768" stroke="#7A3D10" stroke-width="1.2"></path>
<path d="M116.768 242.768V261.768" stroke="#7A3D10" stroke-width="1.2"></path>
<path d="M141.768 242.768V261.768" stroke="#7A3D10" stroke-width="1.2"></path>
<path d="M166.768 242.768V261.768" stroke="#7A3D10" stroke-width="1.2"></path>
<path d="M191.768 242.768V261.768" stroke="#7A3D10" stroke-width="1.2"></path>
</g><path d="M131.768 131.768L196.768 196.768L131.768 261.768L66.7678 196.768L131.768 131.768Z" stroke="#6E3010" stroke-width="2.5"></path></svg>