<svg xmlns="http://www.w3.org/2000/svg" version="1.1" xmlns:xlink="http://www.w3.org/1999/xlink" width="160" height="87.61"><svg xmlns="http://www.w3.org/2000/svg" version="1.1" xmlns:xlink="http://www.w3.org/1999/xlink" width="160" height="87.61"><svg id="Layer_1" data-name="Layer 1" xmlns="http://www.w3.org/2000/svg" viewBox="0 0 160 87.61">
  <path d="M43.83,59.69l-.05-40.59-16.85,40.58h-3.5S6.46,18.87,6.46,18.87l-.05,40.81-6.24.02V.01C1.52,0,2.86.01,4.2.06l20.87,49.61L45.99.03h4.12s0,59.65,0,59.65h-6.28Z"></path>
  <path d="M143.54,33.23l-2.77.27,19.17,26.21-7.41.07-19.12-26.38-8.83.03v26.25s-6.39,0-6.39,0V0s21.99.01,21.99.01l5.19.19c1.7.25,3.43.36,5.03,1,4.58,1.85,7.17,5.83,7.57,10.18.25,2.75.24,5.43.02,8.17-.33,4.19-2.54,7.89-6.33,10.47-2.38,1.62-5.03,2.91-8.13,3.21ZM152.07,20.46v-7.38c0-3.05-2.01-5.55-5.19-6.77-2.17-.82-4.47-1.18-6.9-1.18h-15.38s0,23.25,0,23.25l15.87-.27c3.72-.06,7.17-1.32,9.67-3.69,1.05-1.12,1.93-2.4,1.94-3.95Z"></path>
  <path d="M66.45,59.76l-.02-59.68h6.35s0,18.86,0,18.86l5.44,5.41L99.37.03h7.87s-25,28.29-25,28.29l30.29,29.88-.02,1.56h-46.05ZM88.07,55.11v3.22s2.97,0,2.97,0l.04-1.78h1.68s.02,1.78.02,1.78h2.39s.01-3.1.01-3.1h1.64s0,3.09,0,3.09h3.01s.03-1.67.03-1.67h1.53s.07,1.69.07,1.69l8.34-.05-36.97-37.09-.05,36.76.34.35c.07.07.32-.26.32-.35l.09-1.19h1.56s.06,1.59.06,1.59l2.45-.02v-2.77s1.73,0,1.73,0v2.75s3.01,0,3.01,0v-1.84s1.62,0,1.62,0l.03,1.86h2.38s0-3.22,0-3.22l1.69-.02Z"></path>
  <rect x=".19" y="69.53" width="159.81" height="1.36"></rect>
  <path d="M56.13,85.72l1.66,1.69-2.22.04-.61-.62c-1.22.78-3.58,1.11-4.72.25-.73-.55-.94-1.37-.77-2.23.14-.69.73-1.32,1.63-1.78-1.03-.86-1.55-1.98-.9-3.05.82-1.35,3.7-1.35,4.64-.18.59.73.49,1.83-.18,2.52-.34.34-.7.6-1.1.9l1.52,1.45c.31-.61.41-1.06.56-1.7h1.55c-.14,1.03-.37,1.76-1.05,2.72ZM52.57,82.28c.51-.39.78-.7.98-1.11,0-.56-.36-.88-.94-.91-.47-.02-1.06.27-.98.81.07.49.46.91.94,1.21ZM51.79,86.28c.82.19,1.61-.02,2.19-.45l-1.84-1.75c-.46.18-.86.51-1.03.95-.19.48.04,1.11.68,1.25Z"></path>
  <path d="M45.1,87.39c-.56.04-1.14.05-1.77.03l-3.28-4.39-1.04-1.46v5.84s-1.63,0-1.63,0v-8.26s1.73-.02,1.73-.02l2.71,3.6,1.64,2.27-.04-5.85h1.69s0,8.22,0,8.22Z"></path>
  <path d="M158.92,87.43h-1.76s-3.68-4.96-3.68-4.96l-.64-.95.03,5.91h-1.67s0-8.25,0-8.25l1.74-.02,3.59,4.81c.29.39.53.82.78,1.2l-.05-5.99h1.65s0,8.26,0,8.26Z"></path>
  <path d="M86.83,87.42h-1.77s-3.15-4.2-3.15-4.2l-1.2-1.75.04,5.95h-1.65s0-8.24,0-8.24h1.76s2.93,3.91,2.93,3.91c.52.69.97,1.37,1.41,2.07l-.05-6h1.67s0,8.25,0,8.25Z"></path>
  <path d="M111.37,87.39c-.68.05-1.28.05-1.99.03l-2.26-3.06c-.29-.11-.78-.1-1.13-.04v3.11s-1.65-.02-1.65-.02v-8.27s2.99,0,2.99,0c1.87,0,3.54.64,3.57,2.47.01,1.13-.7,2.05-2.09,2.39l2.57,3.37ZM109.11,81.92c.08-.45-.01-1.08-.61-1.26-.8-.24-1.7-.19-2.52-.17v2.45c1.08-.01,2.91.12,3.12-1.02Z"></path>
  <path d="M77.02,85.36c-.98,2.3-4.05,2.77-6.17,1.72-.46-.23-.92-.65-1.19-1.05-1.03-1.55-1.08-3.4-.26-5.03.63-1.25,1.99-1.94,3.55-2.01,1.91-.08,3.59.86,4.16,2.46.45,1.28.46,2.63-.09,3.9ZM75.39,84.9c.48-1.02.45-2.16.02-3.16-.4-.92-1.24-1.41-2.29-1.4-.97.01-1.86.47-2.24,1.36-.46,1.05-.47,2.34.08,3.36.45.83,1.32,1.26,2.27,1.23s1.74-.51,2.15-1.39Z"></path>
  <path d="M148.81,85.91c-1.1,1.8-4.02,2.13-5.92,1.13-2.18-1.15-2.39-4.5-1.27-6.3.79-1.16,2.13-1.77,3.68-1.75s3.05.73,3.69,2.01c.79,1.58.76,3.39-.18,4.92ZM147.42,85.05c.58-1.07.55-2.33.07-3.37-.41-.89-1.27-1.33-2.26-1.33s-1.85.47-2.25,1.36c-.48,1.07-.48,2.33.09,3.36.43.78,1.23,1.21,2.16,1.22s1.74-.4,2.18-1.24Z"></path>
  <path d="M5.74,79.88c1.97,1.08,2.23,3.55,1.48,5.27-.53,1.22-1.88,2.01-3.37,2.18-1.29.15-2.52.1-3.85.1v-8.26s2.66,0,2.66,0c1.08,0,2.17.22,3.08.72ZM5.77,82.35c-.53-1.75-2.34-1.95-4.09-1.85v5.66c.79,0,1.48-.01,2.15-.17,1.91-.43,2.35-2.25,1.93-3.64Z"></path>
  <path d="M33.83,84.32h-1.94s0-1.33,0-1.33h3.62s0,4.19,0,4.19c-1.56.44-3.32.62-4.92.1-1.75-.56-2.56-2.04-2.6-3.6s.54-3.06,2.06-3.95,3.38-.92,5.12-.44v1.33c-1.8-.49-4.22-.49-5.08,1.25-.54,1.1-.55,2.49.29,3.48.79.94,2.22,1.06,3.45.82v-1.87Z"></path>
  <path d="M120.1,79.16v5.05c0,.71-.16,1.43-.55,2.05-.93,1.49-3.63,1.61-5.19.95-1.05-.44-1.62-1.45-1.63-2.48l-.04-5.57h1.62s.05,5.32.05,5.32c0,1.04.9,1.8,1.95,1.82,1.15.02,2.1-.7,2.11-1.8l.05-5.35h1.63Z"></path>
  <polygon points="14.43 83.85 10.92 83.86 10.93 86.15 15.22 86.16 15.2 87.43 9.28 87.43 9.29 79.15 14.98 79.15 14.99 80.47 10.92 80.48 10.92 82.54 14.4 82.54 14.43 83.85"></polygon>
  <path d="M94.79,85.68c-.51,2.27-4.26,2.18-6.16,1.46v-1.36c1.18.44,2.33.68,3.56.38.76-.18,1.34-.98.81-1.59-.92-1.06-4.55-.16-4.33-3.27.08-1.16.94-2.02,2.26-2.24,1.2-.2,2.38,0,3.53.4l-.03,1.29c-1.11-.32-3.95-.93-4.11.48-.05.44.22.97.81,1.11l1.44.33c.66.15,1.4.4,1.83.89.53.6.55,1.4.39,2.11Z"></path>
  <path d="M22.56,86.23c-.85,1.68-4.28,1.58-5.95.91v-1.34c1.23.4,2.42.7,3.68.32.69-.21,1.17-.95.72-1.52-.84-1.07-4.52-.2-4.37-3.21.06-1.2.93-2.1,2.29-2.32,1.21-.2,2.37,0,3.53.41l-.02,1.29c-1.09-.32-3.98-.94-4.13.46-.05.47.2.98.82,1.13l1.54.36c.68.16,1.47.44,1.83,1.01.49.76.44,1.74.05,2.51Z"></path>
  <path d="M65.41,86.28c.83.04,1.46-.09,2.28-.26l.02,1.31c-1.51.36-3.02.42-4.46-.18-2.53-1.05-2.97-4.96-.8-7.03,1.33-1.26,3.43-1.36,5.18-.86v1.34c-1.24-.29-2.26-.42-3.29.04-1.48.66-1.69,2.3-1.45,3.61.2,1.09,1.17,1.96,2.52,2.03Z"></path>
  <path d="M123.96,85.17c.86,1.4,2.9,1.22,4.44.86l-.02,1.31c-1.48.32-2.99.41-4.38-.16-2.91-1.19-2.9-5.48-.71-7.22,1.36-1.08,3.31-1.19,5.01-.7l-.02,1.32c-1.74-.44-3.63-.36-4.38,1.06-.59,1.11-.61,2.43.06,3.52Z"></path>
  <path d="M133.65,87.38c-.52.05-1.01.05-1.68.05v-6.94s-2.8-.03-2.8-.03v-1.31s7.28,0,7.28,0v1.31s-2.79.02-2.79.02v6.9Z"></path>
  <polygon points="100.27 87.41 98.64 87.43 98.64 80.49 95.8 80.47 95.8 79.15 103.1 79.15 103.12 80.46 100.27 80.49 100.27 87.41"></polygon>
  <rect x="137.59" y="79.15" width="1.64" height="8.3"></rect>
  <rect x="24.65" y="79.15" width="1.64" height="8.3"></rect>
  <path d="M98.8,53.21h-21.34s0-21.36,0-21.36l21.33,21.36ZM96.93,52.46l-18.59-18.66v18.68s18.59-.02,18.59-.02Z"></path>
</svg></svg><style>@media (prefers-color-scheme: light) { :root { filter: none; } }
@media (prefers-color-scheme: dark) { :root { filter: none; } }
</style></svg>