<?xml version="1.0" encoding="UTF-8"?>
<svg id="a" data-name="Outline Expand copy" xmlns="http://www.w3.org/2000/svg" width="64" height="64" viewBox="0 0 64 64">
  <path d="m57,28H12v-15c0-.55127.44824-1,1-1h9c.55176,0,1,.44873,1,1v1h-.76367c-1.14355,0-2.17188.63525-2.68359,1.6582l-1.44727,2.89453c-.15527.31006-.13867.67822.04395.97314.18262.29443.50391.47412.85059.47412h10c.34668,0,.66797-.17969.85059-.47412.18262-.29492.19922-.66309.04395-.97314l-1.44727-2.89453c-.51172-1.02295-1.54004-1.6582-2.68359-1.6582h-.76367v-1c0-1.6543-1.3457-3-3-3h-9c-1.6543,0-3,1.3457-3,3v15h-3c-1.6543,0-3,1.3457-3,3v2c0,1.39105.95605,2.55298,2.24237,2.89111l4.43927,13.32617c.95801,2.86084,3.62598,4.78271,6.63867,4.78271h29.35938c3.0127,0,5.68066-1.92188,6.63965-4.78418l4.43829-13.32471c1.28632-.33813,2.24237-1.50006,2.24237-2.89111v-2c0-1.6543-1.3457-3-3-3Zm-30.3418-11.44727l.72363,1.44727h-6.76367l.72363-1.44727c.1709-.34082.51367-.55273.89453-.55273h3.52734c.38086,0,.72363.21191.89453.55273Zm2.3418,13.44727v13c0,.55127-.44824,1-1,1h-6c-.55176,0-1-.44873-1-1v-13h8Zm-23,1c0-.55127.44824-1,1-1h12v4H7c-.55176,0-1-.44873-1-1v-2Zm45.42188,17.58252c-.68457,2.04395-2.58984,3.41748-4.74219,3.41748h-29.35938c-2.15234,0-4.05762-1.37354-4.74121-3.41602l-4.19238-12.58398h10.61328v7c0,1.6543,1.3457,3,3,3h6c1.6543,0,3-1.3457,3-3v-7h24.61328l-4.19141,12.58252Zm6.57812-15.58252c0,.55127-.44824,1-1,1h-26v-4h26c.55176,0,1,.44873,1,1v2Zm-18-9h14c1.6543,0,3-1.3457,3-3s-1.3457-3-3-3h-2v-5c0-1.6543-1.3457-3-3-3-.77112,0-1.46802.30054-2,.78027-.53198-.47974-1.22888-.78027-2-.78027-1.6543,0-3,1.3457-3,3v5h-2c-1.6543,0-3,1.3457-3,3s1.3457,3,3,3Zm9-12c.55176,0,1,.44873,1,1v5h-2v-5c0-.55127.44824-1,1-1Zm-5,1c0-.55127.44824-1,1-1s1,.44873,1,1v5h-2v-5Zm-4,7h14c.55176,0,1,.44873,1,1s-.44824,1-1,1h-14c-.55176,0-1-.44873-1-1s.44824-1,1-1Z"/>
</svg>