<svg width="100" height="100" viewBox="0 0 100 100" fill="none" xmlns="http://www.w3.org/2000/svg">
<path d="M47 15H11C10.4477 15 10 15.4477 10 16V30C10 30.5523 10.4477 31 11 31H47C47.5523 31 48 30.5523 48 30V16C48 15.4477 47.5523 15 47 15Z" stroke="#27457E" stroke-width="2.5"/>
<path d="M89 15H53C52.4477 15 52 15.4477 52 16V30C52 30.5523 52.4477 31 53 31H89C89.5523 31 90 30.5523 90 30V16C90 15.4477 89.5523 15 89 15Z" stroke="#27457E" stroke-width="2.5"/>
<path d="M29 35H11C10.4477 35 10 35.4477 10 36V50C10 50.5523 10.4477 51 11 51H29C29.5523 51 30 50.5523 30 50V36C30 35.4477 29.5523 35 29 35Z" stroke="#27457E" stroke-width="2.5"/>
<path d="M71 35H35C34.4477 35 34 35.4477 34 36V50C34 50.5523 34.4477 51 35 51H71C71.5523 51 72 50.5523 72 50V36C72 35.4477 71.5523 35 71 35Z" stroke="#27457E" stroke-width="2.5"/>
<path d="M89 35H77C76.4477 35 76 35.4477 76 36V50C76 50.5523 76.4477 51 77 51H89C89.5523 51 90 50.5523 90 50V36C90 35.4477 89.5523 35 89 35Z" stroke="#27457E" stroke-width="2.5"/>
<path d="M47 55H11C10.4477 55 10 55.4477 10 56V70C10 70.5523 10.4477 71 11 71H47C47.5523 71 48 70.5523 48 70V56C48 55.4477 47.5523 55 47 55Z" stroke="#27457E" stroke-width="2.5"/>
<path d="M89 55H53C52.4477 55 52 55.4477 52 56V70C52 70.5523 52.4477 71 53 71H89C89.5523 71 90 70.5523 90 70V56C90 55.4477 89.5523 55 89 55Z" stroke="#27457E" stroke-width="2.5"/>
<path d="M29 75H11C10.4477 75 10 75.4477 10 76V90C10 90.5523 10.4477 91 11 91H29C29.5523 91 30 90.5523 30 90V76C30 75.4477 29.5523 75 29 75Z" stroke="#27457E" stroke-width="2.5"/>
<path d="M71 75H35C34.4477 75 34 75.4477 34 76V90C34 90.5523 34.4477 91 35 91H71C71.5523 91 72 90.5523 72 90V76C72 75.4477 71.5523 75 71 75Z" stroke="#27457E" stroke-width="2.5"/>
<path d="M89 75H77C76.4477 75 76 75.4477 76 76V90C76 90.5523 76.4477 91 77 91H89C89.5523 91 90 90.5523 90 90V76C90 75.4477 89.5523 75 89 75Z" stroke="#27457E" stroke-width="2.5"/>
</svg>
