<svg width="81" height="61" viewBox="0 0 81 61" fill="none" xmlns="http://www.w3.org/2000/svg">
<path d="M76.25 23.25H20.25C18.5931 23.25 17.25 24.5931 17.25 26.25V56.25C17.25 57.9069 18.5931 59.25 20.25 59.25H76.25C77.9069 59.25 79.25 57.9069 79.25 56.25V26.25C79.25 24.5931 77.9069 23.25 76.25 23.25Z" stroke="#27457E" stroke-width="2.5" stroke-linecap="round" stroke-linejoin="round"/>
<path d="M23.25 33.25H31.25" stroke="#27457E" stroke-width="2.5" stroke-linecap="round" stroke-linejoin="round"/>
<path d="M23.25 49.25H31.25" stroke="#27457E" stroke-width="2.5" stroke-linecap="round" stroke-linejoin="round"/>
<path d="M19.25 37.25C29.1911 37.25 37.25 29.1911 37.25 19.25C37.25 9.30887 29.1911 1.25 19.25 1.25C9.30887 1.25 1.25 9.30887 1.25 19.25C1.25 29.1911 9.30887 37.25 19.25 37.25Z" stroke="#27457E" stroke-width="2.5" stroke-linecap="round" stroke-linejoin="round"/>
<path d="M47.2848 46.7045V32.1591H48.2166V46.7045H47.2848ZM50.4212 36.5227C50.353 35.947 50.0765 35.5 49.5916 35.1818C49.1068 34.8636 48.5121 34.7045 47.8075 34.7045C47.2924 34.7045 46.8416 34.7879 46.4553 34.9545C46.0727 35.1212 45.7734 35.3504 45.5575 35.642C45.3454 35.9337 45.2393 36.2652 45.2393 36.6364C45.2393 36.947 45.3132 37.214 45.4609 37.4375C45.6125 37.6572 45.8056 37.8409 46.0405 37.9886C46.2753 38.1326 46.5215 38.2519 46.7791 38.3466C47.0367 38.4375 47.2734 38.5114 47.4893 38.5682L48.6712 38.8864C48.9742 38.9659 49.3113 39.0758 49.6825 39.2159C50.0575 39.3561 50.4155 39.5473 50.7564 39.7898C51.1011 40.0284 51.3852 40.3352 51.6087 40.7102C51.8322 41.0852 51.9439 41.5455 51.9439 42.0909C51.9439 42.7197 51.7791 43.2879 51.4496 43.7955C51.1238 44.303 50.6465 44.7064 50.0178 45.0057C49.3928 45.3049 48.6333 45.4545 47.7393 45.4545C46.906 45.4545 46.1844 45.3201 45.5746 45.0511C44.9685 44.7822 44.4912 44.4072 44.1428 43.9261C43.7981 43.4451 43.603 42.8864 43.5575 42.25H45.0121C45.05 42.6894 45.1977 43.053 45.4553 43.3409C45.7166 43.625 46.0462 43.8371 46.4439 43.9773C46.8454 44.1136 47.2772 44.1818 47.7393 44.1818C48.2772 44.1818 48.7602 44.0947 49.1882 43.9205C49.6162 43.7424 49.9553 43.4962 50.2053 43.1818C50.4553 42.8636 50.5803 42.4924 50.5803 42.0682C50.5803 41.6818 50.4723 41.3674 50.2564 41.125C50.0405 40.8826 49.7564 40.6856 49.4041 40.5341C49.0518 40.3826 48.6712 40.25 48.2621 40.1364L46.8303 39.7273C45.9212 39.4659 45.2015 39.0928 44.6712 38.608C44.1409 38.1231 43.8757 37.4886 43.8757 36.7045C43.8757 36.053 44.0518 35.4848 44.4041 35C44.7602 34.5114 45.2375 34.1326 45.8359 33.8636C46.4382 33.5909 47.1106 33.4545 47.853 33.4545C48.603 33.4545 49.2696 33.589 49.853 33.858C50.4363 34.1231 50.8984 34.4867 51.2393 34.9489C51.584 35.411 51.7659 35.9356 51.7848 36.5227H50.4212Z" fill="#27457E"/>
<path d="M18.2848 26.7045V12.1591H19.2166V26.7045H18.2848ZM21.4212 16.5227C21.353 15.947 21.0765 15.5 20.5916 15.1818C20.1068 14.8636 19.5121 14.7045 18.8075 14.7045C18.2924 14.7045 17.8416 14.7879 17.4553 14.9545C17.0727 15.1212 16.7734 15.3504 16.5575 15.642C16.3454 15.9337 16.2393 16.2652 16.2393 16.6364C16.2393 16.947 16.3132 17.214 16.4609 17.4375C16.6125 17.6572 16.8056 17.8409 17.0405 17.9886C17.2753 18.1326 17.5215 18.2519 17.7791 18.3466C18.0367 18.4375 18.2734 18.5114 18.4893 18.5682L19.6712 18.8864C19.9742 18.9659 20.3113 19.0758 20.6825 19.2159C21.0575 19.3561 21.4155 19.5473 21.7564 19.7898C22.1011 20.0284 22.3852 20.3352 22.6087 20.7102C22.8322 21.0852 22.9439 21.5455 22.9439 22.0909C22.9439 22.7197 22.7791 23.2879 22.4496 23.7955C22.1238 24.303 21.6465 24.7064 21.0178 25.0057C20.3928 25.3049 19.6333 25.4545 18.7393 25.4545C17.906 25.4545 17.1844 25.3201 16.5746 25.0511C15.9685 24.7822 15.4912 24.4072 15.1428 23.9261C14.7981 23.4451 14.603 22.8864 14.5575 22.25H16.0121C16.05 22.6894 16.1977 23.053 16.4553 23.3409C16.7166 23.625 17.0462 23.8371 17.4439 23.9773C17.8454 24.1136 18.2772 24.1818 18.7393 24.1818C19.2772 24.1818 19.7602 24.0947 20.1882 23.9205C20.6162 23.7424 20.9553 23.4962 21.2053 23.1818C21.4553 22.8636 21.5803 22.4924 21.5803 22.0682C21.5803 21.6818 21.4723 21.3674 21.2564 21.125C21.0405 20.8826 20.7564 20.6856 20.4041 20.5341C20.0518 20.3826 19.6712 20.25 19.2621 20.1364L17.8303 19.7273C16.9212 19.4659 16.2015 19.0928 15.6712 18.608C15.1409 18.1231 14.8757 17.4886 14.8757 16.7045C14.8757 16.053 15.0518 15.4848 15.4041 15C15.7602 14.5114 16.2375 14.1326 16.8359 13.8636C17.4382 13.5909 18.1106 13.4545 18.853 13.4545C19.603 13.4545 20.2696 13.589 20.853 13.858C21.4363 14.1231 21.8984 14.4867 22.2393 14.9489C22.584 15.411 22.7659 15.9356 22.7848 16.5227H21.4212Z" fill="#27457E"/>
</svg>
