<svg width="81" height="83" viewBox="0 0 81 83" fill="none" xmlns="http://www.w3.org/2000/svg">
<path d="M20.458 1.25H34.458L40.458 11.25L34.458 21.25H20.458L14.458 11.25L20.458 1.25Z" stroke="#27457E" stroke-width="2.5"/>
<path d="M46.458 1.25H60.458L66.458 11.25L60.458 21.25H46.458L40.458 11.25L46.458 1.25Z" stroke="#27457E" stroke-width="2.5"/>
<path d="M7.45801 21.25H21.458L27.458 31.25L21.458 41.25H7.45801L1.45801 31.25L7.45801 21.25Z" stroke="#27457E" stroke-width="2.5"/>
<path d="M33.458 21.25H47.458L53.458 31.25L47.458 41.25H33.458L27.458 31.25L33.458 21.25Z" stroke="#27457E" stroke-width="2.5"/>
<path d="M59.458 21.25H73.458L79.458 31.25L73.458 41.25H59.458L53.458 31.25L59.458 21.25Z" stroke="#27457E" stroke-width="2.5"/>
<path d="M20.458 41.25H34.458L40.458 51.25L34.458 61.25H20.458L14.458 51.25L20.458 41.25Z" stroke="#27457E" stroke-width="2.5"/>
<path d="M46.458 41.25H60.458L66.458 51.25L60.458 61.25H46.458L40.458 51.25L46.458 41.25Z" stroke="#27457E" stroke-width="2.5"/>
<path d="M7.45801 61.25H21.458L27.458 71.25L21.458 81.25H7.45801L1.45801 71.25L7.45801 61.25Z" stroke="#27457E" stroke-width="2.5"/>
<path d="M33.458 61.25H47.458L53.458 71.25L47.458 81.25H33.458L27.458 71.25L33.458 61.25Z" stroke="#27457E" stroke-width="2.5"/>
<path d="M59.458 61.25H73.458L79.458 71.25L73.458 81.25H59.458L53.458 71.25L59.458 61.25Z" stroke="#27457E" stroke-width="2.5"/>
</svg>
