<svg xmlns="http://www.w3.org/2000/svg" height="24px" viewBox="0 -960 960 960" width="24px" fill="#1f1f1f"><path d="M186.26-633.48h587.48v-99.03q0-4.62-3.84-8.46-3.85-3.85-8.47-3.85H198.57q-4.62 0-8.47 3.85-3.84 3.84-3.84 8.46v99.03Zm0 0V-744.82v111.34ZM198.57-80q-32.52 0-56.21-23.69-23.69-23.7-23.69-56.21v-572.61q0-32.51 23.69-56.21 23.69-23.69 56.21-23.69h46.36v-72.2h71.43v72.2h328.82v-72.2h70.15v72.2h46.1q32.52 0 56.21 23.69 23.69 23.7 23.69 56.21V-491q-15.93-6.75-33.07-9.97-17.13-3.21-34.52-4.11v-60.82H186.26v406q0 4.62 3.84 8.46 3.85 3.85 8.47 3.85h300.69q5.66 18.38 14.95 35.68 9.28 17.29 21.02 31.91H198.57Zm420-17.39q-56.06-56.05-56.06-137.2 0-81.15 56.06-137.2 56.05-56.05 137.2-56.05 81.15 0 137.2 56.05 56.05 56.05 56.05 137.2 0 81.15-56.05 137.2-56.05 56.05-137.2 56.05-81.15 0-137.2-56.05Zm199.25-39.82 27.49-27.58-74.85-74.18v-126.47h-38.97v141.18l86.33 87.05Z"/></svg>