<?xml version="1.0" encoding="UTF-8"?>
<svg id="a" data-name="Outline Expand copy" xmlns="http://www.w3.org/2000/svg" width="64" height="64" viewBox="0 0 64 64">
  <path d="m53,58h-7v-2c1.6543,0,3-1.3457,3-3V7c0-1.6543-1.3457-3-3-3h-28c-1.6543,0-3,1.3457-3,3v46c0,1.6543,1.3457,3,3,3v2h-7c-.55225,0-1,.44775-1,1s.44775,1,1,1h42c.55273,0,1-.44775,1-1s-.44727-1-1-1Zm-6-51v18h-30v-15h7c.26514,0,.51953-.10547.70703-.29297l3.70703-3.70703h17.58594c.55176,0,1,.44873,1,1Zm-30,20h8.58594l-2,2h-6.58594v-2Zm1-21h7.58594l-2,2h-6.58594v-1c0-.55127.44873-1,1-1Zm-1,47v-22h7c.26514,0,.51953-.10547.70703-.29297l3.70703-3.70703h18.58594v26c0,.55127-.44824,1-1,1h-28c-.55127,0-1-.44873-1-1Zm3,5v-2h24v2h-24Zm13-36h8c1.6543,0,3-1.3457,3-3v-7c0-1.6543-1.3457-3-3-3h-8c-1.6543,0-3,1.3457-3,3v7c0,1.6543,1.3457,3,3,3Zm8-2h-8c-.55127,0-1-.44873-1-1v-4h10v4c0,.55127-.44824,1-1,1Zm-8-9h8c.55176,0,1,.44873,1,1v1h-10v-1c0-.55127.44873-1,1-1Zm3,40c0-.55225.44727-1,1-1h5c.55176,0,1-.44873,1-1v-3c0-.55225.44727-1,1-1s1,.44775,1,1v3c0,1.6543-1.3457,3-3,3h-5c-.55273,0-1-.44775-1-1Z"/>
</svg>