<svg width="100" height="100" viewBox="0 0 100 100" fill="none" xmlns="http://www.w3.org/2000/svg">
  <!-- Outer table/surround rectangle -->
  <path d="M10 55 L10 85 Q10 90 15 90 L85 90 Q90 90 90 85 L90 55 Q90 50 85 50 L15 50 Q10 50 10 55 Z" stroke="#27457E" stroke-width="2.5" stroke-linejoin="round"/>
  <!-- Inner burner tray -->
  <path d="M25 58 L25 80 Q25 83 28 83 L72 83 Q75 83 75 80 L75 58 Q75 55 72 55 L28 55 Q25 55 25 58 Z" stroke="#27457E" stroke-width="2.5" stroke-linejoin="round"/>
  <!-- Burner ring / grate lines -->
  <path d="M33 69 L67 69" stroke="#27457E" stroke-width="2.5" stroke-linecap="round"/>
  <path d="M50 58 L50 80" stroke="#27457E" stroke-width="2.5" stroke-linecap="round"/>
  <!-- Flame left -->
  <path d="M37 55 C36 48 32 44 34 36 C30 42 30 50 33 55" stroke="#27457E" stroke-width="2.5" stroke-linecap="round" stroke-linejoin="round"/>
  <!-- Flame center -->
  <path d="M50 55 C50 46 45 40 47 30 C43 37 42 46 44 52 C41 46 42 36 46 28 C40 34 36 44 39 53" stroke="#27457E" stroke-width="2.5" stroke-linecap="round" stroke-linejoin="round"/>
  <!-- Flame right -->
  <path d="M63 55 C64 48 68 44 66 36 C70 42 70 50 67 55" stroke="#27457E" stroke-width="2.5" stroke-linecap="round" stroke-linejoin="round"/>
  <!-- Gas knob left side -->
  <path d="M10 65 L4 65 L4 72 L10 72" stroke="#27457E" stroke-width="2.5" stroke-linecap="round" stroke-linejoin="round"/>
  <!-- Gas knob right side -->
  <path d="M90 65 L96 65 L96 72 L90 72" stroke="#27457E" stroke-width="2.5" stroke-linecap="round" stroke-linejoin="round"/>
</svg>
