<?xml version="1.0" encoding="UTF-8"?>
<svg id="a" data-name="Outline Expand copy" xmlns="http://www.w3.org/2000/svg" width="64" height="64" viewBox="0 0 64 64">
  <path d="m54,51.58521h-2v-22h1.58594c.81152,0,1.53711-.48486,1.84766-1.23486s.14062-1.60547-.43359-2.1792L34.12109,5.29224c-1.16992-1.16992-3.07227-1.16992-4.24219,0L9,26.17114c-.57422.57373-.74414,1.4292-.43359,2.1792s1.03613,1.23486,1.84766,1.23486h1.58594v22h-2c-1.6543,0-3,1.3457-3,3v2c0,1.6543,1.3457,3,3,3h44c1.6543,0,3-1.3457,3-3v-2c0-1.6543-1.3457-3-3-3ZM31.29297,6.7063c.18896-.18848.43994-.29248.70703-.29248s.51807.104.70703.29248l20.87891,20.87891h-6.17188l-14.70703-14.70703c-.39062-.39062-1.02344-.39062-1.41406,0l-14.70703,14.70703h-6.17188L31.29297,6.7063ZM14,29.58521h3c.26514,0,.51953-.10547.70703-.29297l14.29297-14.29297,14.29297,14.29297c.1875.1875.44189.29297.70703.29297h3v22h-4v-15c0-1.6543-1.3457-3-3-3h-8c-1.6543,0-3,1.3457-3,3v15H14v-22Zm30,22h-10v-15c0-.55127.44873-1,1-1h8c.55127,0,1,.44873,1,1v15Zm11,5c0,.55127-.44873,1-1,1H10c-.55127,0-1-.44873-1-1v-2c0-.55127.44873-1,1-1h44c.55127,0,1,.44873,1,1v2Zm-28-19h-8c-1.6543,0-3,1.3457-3,3v6c0,1.6543,1.3457,3,3,3h8c1.6543,0,3-1.3457,3-3v-6c0-1.6543-1.3457-3-3-3Zm-8,2h8c.55127,0,1,.44873,1,1v2h-10v-2c0-.55127.44873-1,1-1Zm8,8h-8c-.55127,0-1-.44873-1-1v-2h10v2c0,.55127-.44873,1-1,1Zm5-17c2.75684,0,5-2.24316,5-5s-2.24316-5-5-5-5,2.24316-5,5,2.24316,5,5,5Zm0-8c1.6543,0,3,1.3457,3,3s-1.3457,3-3,3-3-1.3457-3-3,1.3457-3,3-3Zm6,20v2c0,.55225-.44775,1-1,1s-1-.44775-1-1v-2c0-.55225.44775-1,1-1s1,.44775,1,1Z"/>
</svg>