<svg width="100" height="100" viewBox="0 0 100 100" fill="none" xmlns="http://www.w3.org/2000/svg">
<path d="M15 15L40 12L45 30L18 35L15 15Z" stroke="#27457E" stroke-width="2.5" stroke-linejoin="round"/>
<path d="M45 10L75 8L80 28L48 32L45 10Z" stroke="#27457E" stroke-width="2.5" stroke-linejoin="round"/>
<path d="M80 10L95 15L92 35L78 30L80 10Z" stroke="#27457E" stroke-width="2.5" stroke-linejoin="round"/>
<path d="M12 38L42 34L38 58L10 55L12 38Z" stroke="#27457E" stroke-width="2.5" stroke-linejoin="round"/>
<path d="M40 32L78 28L82 55L44 60L40 32Z" stroke="#27457E" stroke-width="2.5" stroke-linejoin="round"/>
<path d="M80 32L96 36L94 58L78 55L80 32Z" stroke="#27457E" stroke-width="2.5" stroke-linejoin="round"/>
<path d="M8 58L36 56L40 78L12 82L8 58Z" stroke="#27457E" stroke-width="2.5" stroke-linejoin="round"/>
<path d="M38 60L75 56L78 80L42 84L38 60Z" stroke="#27457E" stroke-width="2.5" stroke-linejoin="round"/>
<path d="M77 57L94 60L90 82L74 80L77 57Z" stroke="#27457E" stroke-width="2.5" stroke-linejoin="round"/>
</svg>
