<svg width="100" height="100" viewBox="0 0 100 100" fill="none" xmlns="http://www.w3.org/2000/svg">
<path d="M44 10H11C10.4477 10 10 10.4477 10 11V44C10 44.5523 10.4477 45 11 45H44C44.5523 45 45 44.5523 45 44V11C45 10.4477 44.5523 10 44 10Z" stroke="#27457E" stroke-width="2.5"/>
<path d="M89 10H56C55.4477 10 55 10.4477 55 11V44C55 44.5523 55.4477 45 56 45H89C89.5523 45 90 44.5523 90 44V11C90 10.4477 89.5523 10 89 10Z" stroke="#27457E" stroke-width="2.5"/>
<path d="M44 55H11C10.4477 55 10 55.4477 10 56V89C10 89.5523 10.4477 90 11 90H44C44.5523 90 45 89.5523 45 89V56C45 55.4477 44.5523 55 44 55Z" stroke="#27457E" stroke-width="2.5"/>
<path d="M89 55H56C55.4477 55 55 55.4477 55 56V89C55 89.5523 55.4477 90 56 90H89C89.5523 90 90 89.5523 90 89V56C90 55.4477 89.5523 55 89 55Z" stroke="#27457E" stroke-width="2.5"/>
</svg>
