<svg xmlns="http://www.w3.org/2000/svg" width="64" height="64" viewBox="0 0 64 64" fill="none">
  <path d="M45.3337 29.3325H25.0937L33.8937 20.5592C34.3959 20.057 34.678 19.376 34.678 18.6659C34.678 17.9557 34.3959 17.2747 33.8937 16.7725C33.3916 16.2704 32.7105 15.9883 32.0004 15.9883C31.2902 15.9883 30.6092 16.2704 30.107 16.7725L16.7737 30.1059C16.5309 30.3595 16.3406 30.6585 16.2137 30.9859C15.947 31.6351 15.947 32.3633 16.2137 33.0125C16.3406 33.3399 16.5309 33.6389 16.7737 33.8925L30.107 47.2259C30.3549 47.4758 30.6499 47.6742 30.9748 47.8096C31.2998 47.945 31.6483 48.0147 32.0004 48.0147C32.3524 48.0147 32.701 47.945 33.0259 47.8096C33.3509 47.6742 33.6458 47.4758 33.8937 47.2259C34.1437 46.978 34.342 46.683 34.4774 46.3581C34.6128 46.0331 34.6825 45.6846 34.6825 45.3325C34.6825 44.9805 34.6128 44.6319 34.4774 44.307C34.342 43.982 34.1437 43.6871 33.8937 43.4392L25.0937 34.6659H45.3337C46.041 34.6659 46.7192 34.3849 47.2193 33.8848C47.7194 33.3847 48.0004 32.7064 48.0004 31.9992C48.0004 31.2919 47.7194 30.6137 47.2193 30.1136C46.7192 29.6135 46.041 29.3325 45.3337 29.3325Z" fill="#FFFFFF"/>
</svg>