<svg width="160" height="88" viewBox="0 0 160 88" fill="none" xmlns="http://www.w3.org/2000/svg">
<g clip-path="url(#clip0_2004_28)">
<path d="M43.83 59.6898L43.78 19.0998L26.93 59.6798H23.43L6.46004 18.8698L6.41004 59.6798L0.170044 59.6998V0.00983235C1.52004 -0.000167651 2.86004 0.00983234 4.20004 0.0598323L25.07 49.6698L45.99 0.0298323H50.11V59.6798H43.83V59.6898Z" fill="white"/>
<path d="M143.54 33.23L140.77 33.5L159.94 59.71L152.53 59.78L133.41 33.4L124.58 33.43V59.68H118.19V0L140.18 0.01L145.37 0.2C147.07 0.45 148.8 0.56 150.4 1.2C154.98 3.05 157.57 7.03 157.97 11.38C158.22 14.13 158.21 16.81 157.99 19.55C157.66 23.74 155.45 27.44 151.66 30.02C149.28 31.64 146.63 32.93 143.53 33.23H143.54ZM152.07 20.46V13.08C152.07 10.03 150.06 7.53 146.88 6.31C144.71 5.49 142.41 5.13 139.98 5.13H124.6V28.38L140.47 28.11C144.19 28.05 147.64 26.79 150.14 24.42C151.19 23.3 152.07 22.02 152.08 20.47L152.07 20.46Z" fill="white"/>
<path d="M66.4501 59.7598L66.4301 0.0797852H72.7801V18.9398L78.2201 24.3498L99.3701 0.0297852H107.24L82.2401 28.3198L112.53 58.1998L112.51 59.7598H66.4601H66.4501ZM88.0701 55.1098V58.3298H91.0401L91.0801 56.5498H92.7601L92.7801 58.3298H95.1701L95.1801 55.2298H96.8201V58.3198H99.8301L99.8601 56.6498H101.39L101.46 58.3398L109.8 58.2898L72.8301 21.1998L72.7801 57.9598L73.1201 58.3098C73.1901 58.3798 73.4401 58.0498 73.4401 57.9598L73.5301 56.7698H75.09L75.1501 58.3598L77.6001 58.3398V55.5698H79.3301V58.3198H82.34V56.4798H83.9601L83.9901 58.3398H86.3701V55.1198L88.0601 55.0998L88.0701 55.1098Z" fill="white"/>
<path d="M160 69.5298H0.189941V70.8898H160V69.5298Z" fill="white"/>
<path d="M56.13 85.7201L57.79 87.4101L55.57 87.4501L54.96 86.8301C53.74 87.6101 51.38 87.9401 50.24 87.0801C49.51 86.5301 49.3 85.7101 49.47 84.8501C49.61 84.1601 50.2 83.5301 51.1 83.0701C50.07 82.2101 49.55 81.0901 50.2 80.0201C51.02 78.6701 53.9 78.6701 54.84 79.8401C55.43 80.5701 55.33 81.6701 54.66 82.3601C54.32 82.7001 53.96 82.9601 53.56 83.2601L55.08 84.7101C55.39 84.1001 55.49 83.6501 55.64 83.0101H57.19C57.05 84.0401 56.82 84.7701 56.14 85.7301L56.13 85.7201ZM52.57 82.2801C53.08 81.8901 53.35 81.5801 53.55 81.1701C53.55 80.6101 53.19 80.2901 52.61 80.2601C52.14 80.2401 51.55 80.5301 51.63 81.0701C51.7 81.5601 52.09 81.9801 52.57 82.2801ZM51.79 86.2801C52.61 86.4701 53.4 86.2601 53.98 85.8301L52.14 84.0801C51.68 84.2601 51.28 84.5901 51.11 85.0301C50.92 85.5101 51.15 86.1401 51.79 86.2801Z" fill="white"/>
<path d="M45.1 87.3899C44.54 87.4299 43.96 87.4399 43.33 87.4199L40.05 83.0299L39.01 81.5699V87.4099H37.38V79.1499L39.11 79.1299L41.82 82.7299L43.46 84.9999L43.42 79.1499H45.11V87.3699L45.1 87.3899Z" fill="white"/>
<path d="M158.92 87.4302H157.16L153.48 82.4702L152.84 81.5201L152.87 87.4302H151.2V79.1802L152.94 79.1602L156.53 83.9702C156.82 84.3602 157.06 84.7902 157.31 85.1702L157.26 79.1802H158.91V87.4402L158.92 87.4302Z" fill="white"/>
<path d="M86.83 87.4202H85.06L81.91 83.2202L80.71 81.4702L80.75 87.4202H79.1V79.1802H80.86L83.79 83.0901C84.31 83.7801 84.76 84.4602 85.2 85.1602L85.15 79.1602H86.82V87.4102L86.83 87.4202Z" fill="white"/>
<path d="M111.37 87.3901C110.69 87.4401 110.09 87.4401 109.38 87.4201L107.12 84.3601C106.83 84.2501 106.34 84.2601 105.99 84.3201V87.4301L104.34 87.4101V79.1401H107.33C109.2 79.1401 110.87 79.7801 110.9 81.6101C110.91 82.7401 110.2 83.6601 108.81 84.0001L111.38 87.3701L111.37 87.3901ZM109.11 81.9201C109.19 81.4701 109.1 80.8401 108.5 80.6601C107.7 80.4201 106.8 80.4701 105.98 80.4901V82.9401C107.06 82.9301 108.89 83.0601 109.1 81.9201H109.11Z" fill="white"/>
<path d="M77.02 85.3601C76.04 87.6601 72.97 88.1301 70.85 87.0801C70.39 86.8501 69.9301 86.4301 69.6601 86.0301C68.6301 84.4801 68.58 82.6301 69.4 81.0001C70.03 79.7501 71.39 79.0601 72.95 78.9901C74.86 78.9101 76.54 79.8501 77.11 81.4501C77.56 82.7301 77.57 84.0801 77.02 85.3501V85.3601ZM75.39 84.9001C75.87 83.8801 75.84 82.7401 75.41 81.7401C75.01 80.8201 74.17 80.3301 73.12 80.3401C72.15 80.3501 71.26 80.8101 70.88 81.7001C70.42 82.7501 70.41 84.0401 70.96 85.0601C71.41 85.8901 72.28 86.3201 73.23 86.2901C74.18 86.2601 74.97 85.7801 75.38 84.9001H75.39Z" fill="white"/>
<path d="M148.81 85.9102C147.71 87.7102 144.79 88.0402 142.89 87.0402C140.71 85.8902 140.5 82.5402 141.62 80.7402C142.41 79.5802 143.75 78.9702 145.3 78.9902C146.85 79.0102 148.35 79.7202 148.99 81.0002C149.78 82.5802 149.75 84.3902 148.81 85.9202V85.9102ZM147.42 85.0502C148 83.9802 147.97 82.7202 147.49 81.6802C147.08 80.7902 146.22 80.3502 145.23 80.3502C144.24 80.3502 143.38 80.8202 142.98 81.7102C142.5 82.7802 142.5 84.0402 143.07 85.0702C143.5 85.8502 144.3 86.2802 145.23 86.2902C146.16 86.3002 146.97 85.8902 147.41 85.0502H147.42Z" fill="white"/>
<path d="M5.74 79.8799C7.71 80.9599 7.97 83.4299 7.22 85.1499C6.69 86.3699 5.34 87.1599 3.85 87.3299C2.56 87.4799 1.33 87.4299 0 87.4299V79.1699H2.66C3.74 79.1699 4.83 79.3899 5.74 79.8899V79.8799ZM5.77 82.3499C5.24 80.5999 3.43 80.3999 1.68 80.4999V86.1599C2.47 86.1599 3.16 86.1499 3.83 85.9899C5.74 85.5599 6.18 83.7399 5.76 82.3499H5.77Z" fill="white"/>
<path d="M33.83 84.32H31.89V82.99H35.51V87.18C33.95 87.62 32.19 87.8 30.59 87.28C28.84 86.72 28.03 85.2401 27.99 83.6801C27.95 82.1201 28.53 80.6201 30.05 79.7301C31.57 78.8401 33.43 78.8101 35.17 79.2901V80.6201C33.37 80.1301 30.95 80.1301 30.09 81.8701C29.55 82.9701 29.54 84.36 30.38 85.35C31.17 86.29 32.6 86.41 33.83 86.17V84.3001V84.32Z" fill="white"/>
<path d="M120.1 79.1599V84.2099C120.1 84.9199 119.94 85.6399 119.55 86.2599C118.62 87.7499 115.92 87.8699 114.36 87.2099C113.31 86.7699 112.74 85.7599 112.73 84.7299L112.69 79.1599H114.31L114.36 84.4799C114.36 85.5199 115.26 86.2799 116.31 86.2999C117.46 86.3199 118.41 85.5999 118.42 84.4999L118.47 79.1499H120.1V79.1599Z" fill="white"/>
<path d="M14.43 83.8499L10.92 83.8599L10.93 86.1499L15.22 86.1599L15.2 87.4299H9.28003L9.29003 79.1499H14.98L14.99 80.4699L10.92 80.4799V82.5399H14.4L14.43 83.8499Z" fill="white"/>
<path d="M94.79 85.6799C94.28 87.9499 90.53 87.8599 88.63 87.1399V85.7799C89.81 86.2199 90.96 86.4599 92.19 86.1599C92.95 85.9799 93.53 85.1799 93 84.5699C92.08 83.5099 88.45 84.4099 88.67 81.2999C88.75 80.1399 89.61 79.2799 90.93 79.0599C92.13 78.8599 93.31 79.0599 94.46 79.4599L94.43 80.7499C93.32 80.4299 90.48 79.8199 90.32 81.2299C90.27 81.6699 90.54 82.1999 91.13 82.3399L92.57 82.6699C93.23 82.8199 93.97 83.0699 94.4 83.5599C94.93 84.1599 94.95 84.9599 94.79 85.6699V85.6799Z" fill="white"/>
<path d="M22.56 86.23C21.71 87.91 18.28 87.81 16.61 87.14V85.8C17.84 86.2 19.03 86.5 20.29 86.12C20.98 85.91 21.46 85.17 21.01 84.6C20.17 83.53 16.49 84.4 16.64 81.39C16.7 80.19 17.57 79.29 18.93 79.07C20.14 78.87 21.3 79.07 22.46 79.48L22.44 80.77C21.35 80.45 18.46 79.83 18.31 81.23C18.26 81.7 18.51 82.21 19.13 82.36L20.67 82.72C21.35 82.88 22.14 83.16 22.5 83.73C22.99 84.49 22.94 85.47 22.55 86.24L22.56 86.23Z" fill="white"/>
<path d="M65.41 86.2801C66.24 86.3201 66.87 86.1901 67.69 86.0201L67.71 87.3301C66.2 87.6901 64.69 87.7501 63.25 87.1501C60.72 86.1001 60.28 82.1901 62.45 80.1201C63.78 78.8601 65.88 78.7601 67.63 79.2601V80.6001C66.39 80.3101 65.37 80.1801 64.34 80.6401C62.86 81.3001 62.65 82.9401 62.89 84.2501C63.09 85.3401 64.06 86.2101 65.41 86.2801Z" fill="white"/>
<path d="M123.96 85.1702C124.82 86.5702 126.86 86.3902 128.4 86.0302L128.38 87.3402C126.9 87.6602 125.39 87.7502 124 87.1802C121.09 85.9902 121.1 81.7002 123.29 79.9602C124.65 78.8802 126.6 78.7702 128.3 79.2602L128.28 80.5802C126.54 80.1402 124.65 80.2202 123.9 81.6402C123.31 82.7502 123.29 84.0702 123.96 85.1602V85.1702Z" fill="white"/>
<path d="M133.65 87.3799C133.13 87.4299 132.64 87.4299 131.97 87.4299V80.4899L129.17 80.4599V79.1499H136.45V80.4599L133.66 80.4799V87.3799H133.65Z" fill="white"/>
<path d="M100.27 87.4099L98.64 87.4299V80.4899L95.8 80.4699V79.1499H103.1L103.12 80.4599L100.27 80.4899V87.4099Z" fill="white"/>
<path d="M139.23 79.1499H137.59V87.4499H139.23V79.1499Z" fill="white"/>
<path d="M26.29 79.1499H24.65V87.4499H26.29V79.1499Z" fill="white"/>
<path d="M98.8 53.2101H77.46V31.8501L98.79 53.2101H98.8ZM96.93 52.4601L78.34 33.8001V52.4801L96.93 52.4601Z" fill="white"/>
</g>
<defs>
<clipPath id="clip0_2004_28">
<rect width="160" height="87.61" fill="white"/>
</clipPath>
</defs>
</svg>
