<svg width="100" height="100" viewBox="0 0 100 100" fill="none" xmlns="http://www.w3.org/2000/svg">
  <!-- Bowl / pit base -->
  <path d="M15 58 Q14 72 20 80 Q30 90 50 90 Q70 90 80 80 Q86 72 85 58 Z" stroke="#27457E" stroke-width="2.5" stroke-linejoin="round"/>
  <!-- Rim of the pit -->
  <path d="M12 58 Q12 52 50 52 Q88 52 88 58 Q88 64 50 64 Q12 64 12 58 Z" stroke="#27457E" stroke-width="2.5" stroke-linejoin="round"/>
  <!-- Log 1 (left, angled) -->
  <path d="M28 64 L22 82" stroke="#27457E" stroke-width="2.5" stroke-linecap="round"/>
  <!-- Log 2 (right, angled) -->
  <path d="M72 64 L78 82" stroke="#27457E" stroke-width="2.5" stroke-linecap="round"/>
  <!-- Log 3 (horizontal across) -->
  <path d="M30 74 L70 74" stroke="#27457E" stroke-width="2.5" stroke-linecap="round"/>
  <!-- Flame center -->
  <path d="M50 50 C50 44 44 38 46 28 C42 34 38 36 39 44 C36 40 36 32 40 26 C36 28 30 36 32 46 C28 42 30 30 35 22 C28 28 24 40 28 50" stroke="#27457E" stroke-width="2.5" stroke-linecap="round" stroke-linejoin="round"/>
  <!-- Flame left -->
  <path d="M38 50 C37 44 33 40 35 32 C31 36 30 44 33 50" stroke="#27457E" stroke-width="2.5" stroke-linecap="round" stroke-linejoin="round"/>
  <!-- Flame right -->
  <path d="M62 50 C63 44 67 40 65 32 C69 36 70 44 67 50" stroke="#27457E" stroke-width="2.5" stroke-linecap="round" stroke-linejoin="round"/>
  <!-- Smoke wisps -->
  <path d="M44 22 C42 18 45 14 43 10" stroke="#27457E" stroke-width="2" stroke-linecap="round"/>
  <path d="M50 18 C52 14 49 10 51 6" stroke="#27457E" stroke-width="2" stroke-linecap="round"/>
  <path d="M56 22 C58 18 55 14 57 10" stroke="#27457E" stroke-width="2" stroke-linecap="round"/>
</svg>
