<?xml version="1.0" encoding="UTF-8"?>
<svg id="a" data-name="Outline Expand copy" xmlns="http://www.w3.org/2000/svg" width="64" height="64" viewBox="0 0 64 64">
  <path d="m57,29.88647h-10.38184l-1.11353-2.22705h8.49536c1.6543,0,3-1.3457,3-3v-14.5459c0-1.6543-1.3457-3-3-3h-24c-1.6543,0-3,1.3457-3,3v14.5459c0,1.6543,1.3457,3,3,3h8.49536l-1.11353,2.22705h-13.38184v-9c0-1.6543-1.3457-3-3-3h-2c-.77112,0-1.46802.30054-2,.78027-.53198-.47974-1.22888-.78027-2-.78027h-2c-1.6543,0-3,1.3457-3,3v9h-3c-1.6543,0-3,1.3457-3,3v2c0,1.6543,1.3457,3,3,3v16c0,1.6543,1.3457,3,3,3s3-1.3457,3-3v-3h15c1.6543,0,3-1.3457,3-3v-10h20v16c0,1.6543,1.3457,3,3,3s3-1.3457,3-3v-16c1.6543,0,3-1.3457,3-3v-2c0-1.6543-1.3457-3-3-3ZM30,9.11353h24c.55176,0,1,.44873,1,1v11.56885h-26v-11.56885c0-.55127.44824-1,1-1Zm-1,15.5459v-.97705h26v.97705c0,.55127-.44824,1-1,1h-24c-.55176,0-1-.44873-1-1Zm11.61816,3.22705h2.76367l1,2h-4.76367l1-2Zm-22.61816-1h4v3h-4v-3Zm1-7h2c.55176,0,1,.44873,1,1v4h-4v-4c0-.55127.44824-1,1-1Zm-6,0h2c.55176,0,1,.44873,1,1v2h-4v-2c0-.55127.44824-1,1-1Zm-1,5h4v5h-4v-5Zm-1,29c0,.55127-.44824,1-1,1s-1-.44873-1-1v-16h2v16Zm9-16v4h-7v-4h7Zm8,11h-15v-5h16v4c0,.55127-.44824,1-1,1Zm1-7h-7v-4h7v4Zm26,12c0,.55127-.44824,1-1,1s-1-.44873-1-1v-16h2v16Zm3-19c0,.55127-.44824,1-1,1H7c-.55176,0-1-.44873-1-1v-2c0-.55127.44824-1,1-1h50c.55176,0,1,.44873,1,1v2Z"/>
</svg>